# xmcd
#
# Track frame offsets:
#	150
#	21335
#	44455
#	68052
#	90532
#	112485
#	132525
#	153130
#	174322
#	197335
#
# Disc length: 2932 seconds
#
# Revision: 1
# Processed by: cddbd v1.5.1PL0 Copyright (c) Steve Scherf et al.
# Submitted via: CDex 1.50Beta5
#
DISCID=840b720a
DTITLE=奥菜恵 - gradation
DYEAR=1997
DGENRE=Pop
TTITLE0=瞳の言葉〜Believe in your eyes〜
TTITLE1=I・I・KA・GE・N・NA 愛してる
TTITLE2=今でも…あなたが好きだから(Album Version)
TTITLE3=とってもゴメンネ
TTITLE4=あなたのそばで
TTITLE5=sweet time
TTITLE6=短い夏
TTITLE7=こんなふうな せつなさって
TTITLE8=雨の雫
TTITLE9=一番星を探して
EXTD=
EXTT0=
EXTT1=
EXTT2=
EXTT3=
EXTT4=
EXTT5=
EXTT6=
EXTT7=
EXTT8=
EXTT9=
PLAYORDER=
